<svg version="1.1" id="Layer_1" xmlns="http://www.w3.org/2000/svg" xmlns:xlink="http://www.w3.org/1999/xlink" x="0px" y="0px"
	 width="100%" viewBox="0 0 496 496" enable-background="new 0 0 496 496" xml:space="preserve">
<path fill="#000000" opacity="1.000000" stroke="none" 
	d="
M393.169403,328.056274 
	C366.953247,374.608063 327.670685,402.697235 275.446167,410.891205 
	C208.297760,421.426758 141.553375,389.641357 109.006111,328.165802 
	C82.635483,278.356720 81.833839,227.076645 107.441101,177.139618 
	C132.350876,128.562775 173.218246,99.608696 227.573959,91.698723 
	C281.020447,83.921059 327.556427,99.651955 365.765961,137.571075 
	C392.494629,164.096619 407.681122,196.794678 411.460663,234.555420 
	C414.754272,267.460938 408.756012,298.494171 393.169403,328.056274 
M170.694366,373.764099 
	C205.203354,396.294098 242.883896,403.668396 282.863556,394.429199 
	C374.918762,373.155426 422.939026,275.118103 383.981415,189.301895 
	C360.591522,137.778473 302.146484,100.049751 241.118866,105.048286 
	C217.521957,106.981003 195.351166,113.070969 175.687576,125.860542 
	C122.601631,160.388611 98.241791,209.355255 106.441086,272.629547 
	C112.010643,315.609985 134.554184,348.836090 170.694366,373.764099 
z"/>
<path fill="#000000" opacity="1.000000" stroke="none" 
	d="
M187.857544,292.998901 
	C187.843933,269.004486 187.881134,245.509476 187.776306,222.015106 
	C187.759125,218.165970 188.200439,215.586121 193.080124,215.785446 
	C199.355728,216.041779 200.039017,216.310730 200.054245,221.958237 
	C200.094574,236.919052 200.067917,251.880051 200.067917,266.560364 
	C202.466812,267.634460 203.152252,266.128021 204.011566,265.301575 
	C208.093796,261.375488 212.125626,257.396027 216.127731,253.387970 
	C219.609512,249.900986 223.271957,246.783463 223.291260,240.944534 
	C223.304977,236.795303 226.622238,233.561798 230.718826,233.343628 
	C236.367111,233.042801 239.212372,229.344101 242.431000,225.824387 
	C244.880722,223.145462 247.223663,220.368881 249.737625,217.494537 
	C246.403748,215.168137 242.874161,214.652161 239.691315,213.319336 
	C229.660385,209.118820 223.779129,201.054306 223.738937,191.205048 
	C223.703094,182.422134 229.878601,173.876389 239.670349,170.203583 
	C254.357620,164.694489 269.307983,164.064926 283.965179,170.118927 
	C291.524841,173.241379 298.149384,177.908371 298.587219,187.341949 
	C298.891235,193.892075 294.487915,197.862610 287.567139,197.521820 
	C286.906586,196.862823 286.802338,196.027405 287.041168,195.211334 
	C289.834198,185.665863 284.548645,175.699295 273.497620,171.653015 
	C262.791840,167.733109 252.255936,168.606598 242.162567,174.028931 
	C236.252609,177.203873 232.561386,182.291946 232.616501,188.818451 
	C232.666885,194.785156 237.100662,198.510635 242.286606,201.159180 
	C249.998962,205.098007 258.469025,206.042770 266.789673,207.614883 
	C274.326843,209.038956 281.792694,210.681915 288.393005,214.901276 
	C304.645813,225.291092 304.168274,248.342285 287.449738,257.987946 
	C275.457733,264.906677 262.389954,265.109344 249.137482,263.798767 
	C247.022079,263.589569 244.945740,262.724213 241.950195,264.511932 
	C249.341034,279.371674 252.171158,296.119873 261.481995,310.366577 
	C251.200745,313.557892 247.404953,311.971863 243.774445,302.629639 
	C240.278214,293.632965 237.148560,284.493835 233.859406,275.416748 
	C233.745926,275.103546 233.676208,274.772217 233.540634,274.469696 
	C227.297134,260.538422 220.644180,254.773453 206.884903,267.866669 
	C202.166840,272.356354 199.504883,276.598633 200.018814,283.313354 
	C200.614609,291.097565 199.995987,298.967590 200.156296,306.795227 
	C200.237732,310.772095 198.221970,311.677216 194.856644,311.378632 
	C191.776993,311.105377 187.716431,312.581116 187.874680,306.994904 
	C188.002029,302.499878 187.875092,297.997589 187.857544,292.998901 
M282.577393,255.131195 
	C294.183502,246.026169 293.746521,233.847031 281.530762,225.628571 
	C276.157288,222.013443 270.009857,220.609161 263.803650,219.371246 
	C261.437592,218.899292 259.699310,220.004944 258.014771,221.554077 
	C252.260284,226.846085 246.396072,232.018646 240.629242,237.297409 
	C233.563477,243.765167 233.559250,247.452286 240.554321,254.137039 
	C243.355988,256.814392 246.545288,258.816742 250.337891,259.892578 
	C261.540680,263.070404 271.999359,261.115112 282.577393,255.131195 
z"/>
<path fill="#000000" opacity="1.000000" stroke="none" 
	d="
M220.467957,347.001160 
	C220.908783,350.624268 219.830276,352.165680 216.005219,350.795258 
	C217.005890,344.812958 216.850784,338.751373 216.173920,332.731201 
	C220.287949,332.048309 220.287949,332.048309 221.006958,338.796082 
	C224.765457,337.915039 225.337463,332.066223 230.500565,333.158142 
	C228.611572,335.138184 226.722565,337.118256 224.466888,339.482666 
	C228.157318,341.664124 228.657166,345.914246 231.357193,349.158661 
	C234.216873,344.713379 231.417984,340.393402 232.214478,336.273376 
	C232.534149,334.619751 231.909790,332.562408 234.281906,332.750824 
	C236.563934,332.932129 235.865250,334.729309 235.797150,336.531372 
	C235.623276,341.131805 236.125549,345.757751 236.347305,350.174011 
	C227.334396,354.964539 226.102386,346.727783 223.026459,342.454468 
	C220.349319,343.266052 220.468185,345.006531 220.467957,347.001160 
z"/>
<path fill="#000000" opacity="1.000000" stroke="none" 
	d="
M260.976166,348.940216 
	C260.468689,351.415436 258.958618,351.687164 256.461426,350.656250 
	C256.461426,348.189026 256.440826,345.570312 256.468872,342.952118 
	C256.486725,341.285004 256.059570,339.757385 254.169785,339.741028 
	C252.479767,339.726349 251.461151,340.994507 251.363693,342.692596 
	C251.249313,344.685547 251.280396,346.689301 251.312286,348.687347 
	C251.336731,350.219299 251.006378,351.366547 249.132858,351.215790 
	C247.455688,351.080811 247.537018,349.918243 247.578522,348.675903 
	C247.645203,346.680450 247.682419,344.676453 247.570602,342.685120 
	C247.491211,341.271057 246.818268,339.947510 245.274826,339.826508 
	C243.504242,339.687714 242.472778,340.938232 242.299545,342.571777 
	C242.089951,344.548187 242.057877,346.566223 242.187073,348.550720 
	C242.406021,351.913177 240.565842,351.514771 238.113342,350.937958 
	C238.734619,346.704559 238.862152,342.630524 238.077042,338.333923 
	C244.522568,336.618835 250.784882,338.356262 256.945923,337.678925 
	C259.001282,337.452942 259.986481,339.532196 260.223175,341.475372 
	C260.503754,343.778595 260.583649,346.106293 260.873566,348.702820 
	C260.996613,348.982269 260.976166,348.940216 260.976166,348.940216 
z"/>
<path fill="#000000" opacity="1.000000" stroke="none" 
	d="
M277.301880,343.862732 
	C277.594330,346.065918 276.470947,349.018341 279.356018,349.004303 
	C282.155640,348.990723 282.426025,346.272186 282.764374,343.803070 
	C283.028931,341.872711 280.311615,338.238861 284.102783,338.232544 
	C287.583099,338.226746 285.869843,342.111694 286.151581,344.303589 
	C286.421265,346.401611 286.209778,348.561523 286.209778,350.976776 
	C283.508514,351.238220 280.923462,351.673035 278.335327,351.692139 
	C275.119446,351.715881 273.570953,349.714325 273.343201,346.651123 
	C273.209045,344.847229 273.372559,343.013306 273.140320,341.226929 
	C272.922211,339.549469 272.958496,338.110504 274.951721,337.857758 
	C276.805511,337.622711 277.023010,339.106567 277.148376,340.475952 
	C277.238953,341.465576 277.254120,342.462128 277.301880,343.862732 
z"/>
<path fill="#000000" opacity="1.000000" stroke="none" 
	d="
M261.008636,349.002228 
	C261.578247,347.602692 262.173035,346.631165 263.849396,348.031616 
	C265.066589,349.048462 266.459045,350.299042 268.413422,348.533478 
	C268.162537,345.799683 265.371735,346.025269 263.810852,344.901550 
	C262.135437,343.695343 261.232574,342.278900 261.977631,340.258667 
	C262.981201,337.537506 265.357025,337.350494 267.746613,337.487335 
	C269.714966,337.600098 271.938446,337.645538 271.237335,340.757904 
	C269.046356,341.880585 267.469513,338.249878 265.267883,340.131287 
	C265.159027,341.872498 266.437653,342.271332 267.703949,342.706299 
	C270.574890,343.692505 273.237152,345.097900 271.778778,348.720703 
	C270.398468,352.149597 267.372803,352.250916 264.199524,351.445709 
	C263.000244,351.141327 262.085175,350.544952 261.205902,349.225830 
	C260.976166,348.940216 260.996613,348.982269 261.008636,349.002228 
z"/>
</svg>