<svg version="1.1" id="Layer_1" xmlns="http://www.w3.org/2000/svg" xmlns:xlink="http://www.w3.org/1999/xlink" x="0px" y="0px"
	 width="100%" viewBox="0 0 500 500" enable-background="new 0 0 500 500" xml:space="preserve">
<path fill="#000000" opacity="1.000000" stroke="none" 
	d="
M278.000000,501.000000 
	C186.666687,501.000000 95.833344,500.975281 5.000192,501.095764 
	C1.576123,501.100281 0.903036,500.423828 0.905301,497.000000 
	C1.013778,333.000092 1.013756,169.000122 0.905337,5.000247 
	C0.903074,1.576946 1.575794,0.903021 4.999876,0.905286 
	C168.999756,1.013775 332.999725,1.013761 496.999634,0.905353 
	C500.422668,0.903091 501.096985,1.575429 501.094727,4.999757 
	C500.986206,168.999634 500.986237,332.999603 501.094604,496.999512 
	C501.096893,500.422272 500.425629,501.102356 497.000244,501.096375 
	C424.167023,500.969208 351.333466,501.000000 278.000000,501.000000 
z"/>
<path fill="#9A5B1B" opacity="1.000000" stroke="none" 
	d="
M182.674149,106.213135 
	C196.040771,98.600952 210.456787,94.640366 225.238968,92.260216 
	C257.992981,86.986366 289.477936,91.574142 319.561768,105.608650 
	C320.615204,106.100090 321.638916,106.655304 322.906433,107.428604 
	C323.959778,110.446274 321.783875,111.596497 320.126007,112.807220 
	C317.954529,114.393013 315.994995,116.157211 313.850525,118.312622 
	C310.675018,118.791168 308.293640,117.439056 305.864258,116.429008 
	C287.308929,108.714340 267.896240,105.190422 247.916412,105.709473 
	C227.795654,106.232185 208.317352,110.270805 190.063904,119.206245 
	C187.709793,120.358620 185.471573,122.001595 182.219452,121.434052 
	C179.935059,118.904076 180.603302,116.314896 181.304550,113.815178 
	C181.968292,111.449120 182.082855,109.004646 182.674149,106.213135 
z"/>
<path fill="#9A5B1B" opacity="1.000000" stroke="none" 
	d="
M165.811829,387.245880 
	C154.044205,381.077271 144.615372,372.462006 135.565552,363.433563 
	C131.345047,359.223022 127.276161,354.810516 123.768478,349.524994 
	C125.659851,345.466431 129.290649,343.294556 132.505005,340.267914 
	C135.023987,339.895416 136.206848,341.419678 137.337631,342.814240 
	C148.001297,355.965424 160.577133,366.919128 174.987045,375.789490 
	C175.978897,376.400055 176.856491,377.178986 177.289597,378.704376 
	C174.228775,382.682159 170.772995,385.768555 165.811829,387.245880 
z"/>
<path fill="#B17424" opacity="1.000000" stroke="none" 
	d="
M395.753967,319.777374 
	C390.093262,333.667999 382.217133,346.058441 371.505249,356.918945 
	C364.966492,360.753387 358.739380,364.477448 351.244812,366.378326 
	C349.266205,366.403717 347.673218,366.447754 346.038483,365.169739 
	C345.018890,362.831055 346.573486,361.817596 347.744385,360.719116 
	C357.110809,351.931702 365.664124,342.455566 372.644104,331.626282 
	C373.552460,330.216980 374.680176,328.997681 376.542419,328.058716 
	C381.304626,326.857849 384.784302,323.968658 388.669678,321.868256 
	C390.798431,320.717438 392.733429,318.955933 395.753967,319.777374 
z"/>
<path fill="#9A5B1B" opacity="1.000000" stroke="none" 
	d="
M91.377716,266.245819 
	C89.036369,253.963837 90.077766,241.948578 91.394836,229.941605 
	C91.628090,227.815170 92.099693,225.714874 92.695503,223.290436 
	C93.790787,222.284637 94.853310,222.177948 95.619743,222.818558 
	C98.829247,225.501205 102.862343,227.031052 105.942299,230.519882 
	C106.423798,240.096405 105.619537,249.246475 105.122147,258.819122 
	C100.772621,262.042084 97.360085,266.308563 91.377716,266.245819 
z"/>
<path fill="#A26621" opacity="1.000000" stroke="none" 
	d="
M269.271454,410.646790 
	C257.603149,412.838135 246.159424,412.171875 234.358765,411.201050 
	C233.330521,409.004761 234.711105,407.863922 235.969742,406.919067 
	C239.763977,404.070526 243.253510,400.835724 247.548584,398.001953 
	C260.343018,395.952454 273.018280,396.104675 285.702454,393.218445 
	C289.532806,396.279999 286.225494,397.546692 284.448914,398.767487 
	C279.241150,402.346283 273.743439,405.522766 269.271454,410.646790 
z"/>
<path fill="#F9F6DB" opacity="1.000000" stroke="none" 
	d="
M378.816101,154.588715 
	C386.184845,162.921783 391.573242,172.262573 396.144287,182.527588 
	C394.087830,187.301971 390.174469,189.366959 385.339417,190.603577 
	C383.367676,189.742355 382.697693,188.196930 381.859863,186.778015 
	C377.746155,179.810989 374.077362,172.571487 369.123932,166.117950 
	C368.122284,164.812958 367.204620,163.399948 367.480316,161.246368 
	C370.544403,157.646927 374.451538,156.057892 378.816101,154.588715 
z"/>
<path fill="#9A5B1B" opacity="1.000000" stroke="none" 
	d="
M409.559814,227.747116 
	C411.733490,237.318130 412.231354,246.729324 411.517944,256.584106 
	C407.844971,259.542206 403.452606,260.692352 400.267883,263.836548 
	C399.349884,264.742889 398.219635,264.687134 397.124054,263.226440 
	C395.515167,253.487015 396.767487,244.011948 396.002502,234.194946 
	C399.924805,230.515778 403.969666,227.748199 409.559814,227.747116 
z"/>
<path fill="#BF9236" opacity="1.000000" stroke="none" 
	d="
M361.002563,366.819824 
	C347.911285,382.689484 330.458405,392.139526 311.985687,400.055573 
	C309.597809,401.078827 307.149872,401.961853 304.356079,402.912231 
	C302.112946,400.145477 304.081909,398.531433 305.952484,397.200531 
	C321.331116,386.258789 337.161163,376.043091 354.195282,367.818237 
	C356.239319,366.831268 358.263458,365.413208 361.002563,366.819824 
z"/>
<path fill="#ECDF85" opacity="1.000000" stroke="none" 
	d="
M353.449158,127.785995 
	C361.066925,133.147949 367.122284,139.585709 372.879578,146.655273 
	C369.936371,150.097809 366.080048,151.885315 362.267456,154.329559 
	C360.874115,154.491821 359.921356,154.112228 359.233612,153.412781 
	C353.629669,147.713348 347.324829,142.716156 342.186584,136.107513 
	C343.767609,130.287643 347.936096,128.237457 353.449158,127.785995 
z"/>
<path fill="#ECDF85" opacity="1.000000" stroke="none" 
	d="
M106.449974,321.186890 
	C102.250671,313.944092 99.709641,306.400848 97.261017,298.438385 
	C100.517342,294.620758 103.327354,290.496124 109.093018,290.224487 
	C113.524841,297.014801 115.672981,304.428101 117.779312,312.228790 
	C115.200264,316.961212 111.809654,320.238770 106.449974,321.186890 
z"/>
<path fill="#E2CB88" opacity="1.000000" stroke="none" 
	d="
M119.783379,158.480988 
	C124.540871,150.723419 130.471313,144.514633 136.564575,138.065399 
	C141.532074,137.151672 140.322739,140.714066 139.929962,142.699783 
	C138.866165,148.077988 137.385483,153.389572 134.984985,158.369553 
	C134.258957,159.875717 133.467346,161.333206 133.386963,163.469910 
	C131.573395,167.669815 129.531387,171.264969 125.706444,174.002808 
	C120.442154,174.340485 119.029839,171.161362 118.468941,167.195618 
	C118.064209,164.333969 118.445587,161.551682 119.783379,158.480988 
z"/>
<path fill="#BA8730" opacity="1.000000" stroke="none" 
	d="
M361.600586,367.113922 
	C356.371735,367.215179 352.457153,370.031189 348.450317,372.175751 
	C333.951874,379.935669 320.140381,388.848328 306.621155,398.208862 
	C305.199005,399.193573 303.998077,400.281036 303.995667,402.550598 
	C300.139496,404.937683 295.878235,405.694733 291.393250,406.928894 
	C289.533539,403.113312 292.798981,401.895142 294.901154,400.498535 
	C305.401917,393.521942 315.794067,386.368408 326.723907,380.055237 
	C334.762482,375.412018 342.021454,369.496490 350.718536,365.242676 
	C355.768341,364.596863 359.365814,361.379822 363.603943,359.684540 
	C365.869995,358.778137 367.809021,357.034424 370.818634,357.047943 
	C369.170441,361.383820 365.680176,364.367218 361.600586,367.113922 
z"/>
<path fill="#AF7A2F" opacity="1.000000" stroke="none" 
	d="
M350.604248,364.997803 
	C349.159515,368.659241 345.272705,369.774475 342.211395,371.775970 
	C326.729431,381.898071 311.086029,391.773499 295.483582,401.710815 
	C293.644989,402.881805 291.865417,404.053223 291.048523,406.571472 
	C287.775238,408.290955 284.332642,408.760071 280.478455,409.260986 
	C278.397858,406.036957 280.992157,404.820679 282.954224,403.569672 
	C289.197601,399.588806 295.281464,395.370239 301.487823,391.336334 
	C303.007416,390.348694 304.548340,389.408051 305.896484,387.654205 
	C311.083710,383.623474 317.075409,381.801605 322.379364,378.677368 
	C328.709930,374.948395 334.759644,370.826996 340.571625,366.338806 
	C342.005341,365.231689 343.388672,363.949921 345.671326,363.897034 
	C347.176361,365.407654 348.772064,364.881287 350.604248,364.997803 
z"/>
<path fill="#CEA13C" opacity="1.000000" stroke="none" 
	d="
M407.806396,283.728577 
	C407.030701,290.250946 405.717010,296.448181 403.172363,302.687561 
	C399.930817,306.206848 396.102081,308.214722 392.129791,309.973663 
	C390.290283,310.788208 388.373840,311.565308 386.388977,309.443756 
	C386.338226,302.557526 389.553253,296.984009 392.094849,290.815857 
	C395.391022,288.216064 398.569397,286.137512 401.907440,284.307159 
	C403.667084,283.342316 405.443787,282.411011 407.806396,283.728577 
z"/>
<path fill="#E2CB88" opacity="1.000000" stroke="none" 
	d="
M209.281281,406.163025 
	C202.778122,405.359985 197.130814,402.791382 191.048767,400.579102 
	C190.098251,397.823395 192.041168,396.819031 193.548904,395.667114 
	C196.291458,393.571747 199.492508,392.230072 202.812241,390.330292 
	C207.848572,390.001068 212.054932,391.333801 216.103195,394.350586 
	C218.068558,400.772583 213.067139,402.915405 209.281281,406.163025 
z"/>
<path fill="#B17424" opacity="1.000000" stroke="none" 
	d="
M306.676331,387.753540 
	C306.785461,390.186462 304.813141,390.784363 303.391479,391.734009 
	C296.700592,396.203247 289.937012,400.564392 283.166840,404.913513 
	C281.747101,405.825592 280.386963,406.693359 280.075378,408.889893 
	C276.741913,410.333923 273.331421,410.857849 269.432312,410.953613 
	C268.761200,407.938202 270.842743,406.514130 272.896759,405.047943 
	C277.570435,401.711914 282.228180,398.353607 286.958984,394.679443 
	C292.722015,389.967163 299.381256,388.298004 306.676331,387.753540 
z"/>
<path fill="#D7BD7D" opacity="1.000000" stroke="none" 
	d="
M119.749359,158.263535 
	C120.022934,161.193954 119.874649,164.303543 120.040154,167.396332 
	C120.211166,170.592026 121.261299,173.234329 125.651436,173.014496 
	C125.921829,179.234482 122.801056,183.812180 117.697678,187.610413 
	C113.575935,187.275192 112.547134,184.413101 111.906914,181.452057 
	C111.207481,178.217163 111.079094,174.901703 111.741196,171.212463 
	C113.771118,166.289963 116.832466,162.492813 119.749359,158.263535 
z"/>
<path fill="#F7F3BD" opacity="1.000000" stroke="none" 
	d="
M384.861877,190.268707 
	C389.167633,188.542786 392.277771,185.685410 395.937775,183.030945 
	C398.847076,186.671555 399.930634,191.130356 401.793823,195.617065 
	C398.741455,199.553482 395.214294,202.373657 389.935852,202.796783 
	C386.357147,199.273331 384.655365,195.252960 384.861877,190.268707 
z"/>
<path fill="#A26621" opacity="1.000000" stroke="none" 
	d="
M105.453224,230.002686 
	C100.326790,229.179092 97.434341,225.375809 93.280670,223.022919 
	C92.922501,218.340347 94.455070,214.003250 95.783234,209.293259 
	C98.036346,208.346466 99.228905,209.727203 100.118889,211.029144 
	C102.198784,214.071808 104.893761,216.483459 107.736115,219.311432 
	C108.524559,223.367554 108.293144,226.898346 105.453224,230.002686 
z"/>
<path fill="#A26621" opacity="1.000000" stroke="none" 
	d="
M182.381927,105.848839 
	C184.807236,107.771042 184.091034,110.059708 183.363602,112.279388 
	C182.530273,114.822212 181.718658,117.347328 181.984375,120.498306 
	C179.836472,125.495003 175.950256,127.170097 170.885544,127.138062 
	C169.554016,120.823036 172.843384,115.802444 174.705933,110.035446 
	C177.009399,107.896057 179.545181,106.938217 182.381927,105.848839 
z"/>
<path fill="#BA8730" opacity="1.000000" stroke="none" 
	d="
M396.291870,319.773804 
	C391.573822,320.896729 388.254852,323.999725 384.410278,326.088562 
	C382.126068,327.329681 380.042938,329.014740 376.827637,328.876160 
	C376.479889,324.303406 378.575928,320.735718 382.112793,317.543274 
	C386.321228,316.779755 389.449280,314.615112 392.663849,312.595459 
	C394.713013,311.308014 396.656921,309.499329 399.701935,310.739197 
	C399.564362,314.134613 397.721313,316.704529 396.291870,319.773804 
z"/>
<path fill="#F7F3BD" opacity="1.000000" stroke="none" 
	d="
M361.818878,154.401520 
	C364.522003,150.513901 368.425476,148.901138 372.504272,147.007629 
	C375.327545,148.939331 377.204102,151.408585 379.108582,154.242920 
	C376.215546,157.685852 371.955353,158.659073 368.124146,161.014984 
	C363.960388,160.662415 362.427582,158.083939 361.818878,154.401520 
z"/>
<path fill="#AF7A2F" opacity="1.000000" stroke="none" 
	d="
M107.493912,219.019577 
	C101.471405,218.088074 100.628761,211.991714 96.316467,209.160767 
	C96.323166,205.710983 97.516609,202.662170 98.846222,199.303833 
	C101.594154,197.734818 102.345596,199.857376 102.952881,201.371368 
	C104.374184,204.914673 106.818878,207.445724 110.151245,209.789841 
	C110.730492,213.401978 110.271126,216.471588 107.493912,219.019577 
z"/>
<path fill="#A26621" opacity="1.000000" stroke="none" 
	d="
M133.882385,340.254028 
	C130.286011,342.941589 128.345856,347.118866 123.979324,349.035156 
	C121.337891,347.098969 119.723328,344.464294 117.968399,341.554443 
	C119.779976,336.965607 123.731987,334.913422 127.668457,332.399841 
	C131.703979,333.537354 132.935822,336.606903 133.882385,340.254028 
z"/>
<path fill="#D7BD7D" opacity="1.000000" stroke="none" 
	d="
M132.334335,164.055511 
	C133.017029,156.888535 136.987106,150.787018 138.221497,143.822281 
	C138.576599,141.818741 140.086548,139.794815 137.247147,138.036316 
	C139.033310,135.686813 141.191849,133.428589 143.678986,131.104492 
	C146.353561,133.588318 145.441589,136.550354 144.976791,139.400467 
	C144.240509,143.915100 142.386734,148.140823 141.362350,153.001434 
	C139.612335,157.938354 136.848175,161.627106 132.334335,164.055511 
z"/>
<path fill="#A26621" opacity="1.000000" stroke="none" 
	d="
M90.997368,266.433960 
	C94.398651,266.295746 96.036499,263.381226 98.411316,261.908081 
	C99.937485,260.961334 101.205826,259.776367 103.522263,260.006714 
	C105.953224,261.858612 105.952507,264.316437 105.800598,267.170746 
	C101.346527,270.465607 98.046089,274.895905 92.458450,276.236145 
	C91.748383,272.964111 91.349251,269.913422 90.997368,266.433960 
z"/>
<path fill="#BF9236" opacity="1.000000" stroke="none" 
	d="
M400.213135,310.736816 
	C396.481110,310.804352 394.324463,313.444611 391.604218,314.898773 
	C388.944092,316.320801 386.679565,318.774353 383.038971,317.964417 
	C381.755646,313.930542 383.446564,311.204346 386.521729,308.835938 
	C391.697601,310.984070 394.412628,306.557159 398.077209,305.207001 
	C399.493561,304.685181 400.381073,302.894287 402.609711,303.004761 
	C402.785980,305.710754 401.366791,308.012573 400.213135,310.736816 
z"/>
<path fill="#CEA13C" opacity="1.000000" stroke="none" 
	d="
M96.395355,294.217590 
	C95.422485,291.591034 94.758949,289.193756 94.128479,286.409485 
	C97.289780,282.000641 100.428543,277.993317 106.424721,277.552887 
	C109.053398,280.023773 109.184456,282.923218 108.822723,286.289978 
	C104.550652,289.038544 101.624817,293.277832 96.395355,294.217590 
z"/>
<path fill="#A26621" opacity="1.000000" stroke="none" 
	d="
M313.912659,118.303986 
	C313.790527,115.868210 314.826782,114.695053 316.530396,113.627708 
	C318.851776,112.173332 321.359894,110.843933 322.985596,108.008652 
	C326.070374,109.197098 329.004425,110.717804 332.153503,112.513901 
	C329.457031,116.618690 324.143463,117.595993 321.295807,122.084763 
	C317.910950,122.458794 315.480743,121.316849 313.912659,118.303986 
z"/>
<path fill="#AF7A2F" opacity="1.000000" stroke="none" 
	d="
M160.930206,118.351318 
	C162.996887,116.633362 165.023453,115.293304 167.380524,113.887817 
	C171.483093,114.417862 169.743073,116.990410 169.217575,118.709892 
	C167.813324,123.304665 166.153671,127.824989 164.255280,132.681702 
	C162.437881,135.984985 160.262817,138.260986 156.276382,138.398193 
	C154.439835,135.957901 155.564377,133.791809 156.341537,131.693466 
	C157.932755,127.397148 159.601120,123.130737 160.930206,118.351318 
z"/>
<path fill="#B17424" opacity="1.000000" stroke="none" 
	d="
M163.326447,133.109955 
	C164.606171,128.101196 166.205276,123.246391 167.830551,118.400383 
	C168.284027,117.048279 169.547974,115.807121 168.007111,114.044838 
	C169.575211,111.998466 171.950607,111.014236 174.565918,109.768234 
	C175.658783,115.735451 171.649155,120.700691 171.084137,126.857323 
	C170.112610,131.112427 166.825821,132.117416 163.326447,133.109955 
z"/>
<path fill="#D1B167" opacity="1.000000" stroke="none" 
	d="
M106.174019,321.287750 
	C110.383125,319.477722 113.156960,316.061157 116.706047,313.129822 
	C120.650085,313.501648 120.289978,316.631714 120.947006,319.493042 
	C118.606926,324.198853 115.445694,327.474854 110.084091,328.279572 
	C108.559448,325.932495 107.377220,323.783081 106.174019,321.287750 
z"/>
<path fill="#A26621" opacity="1.000000" stroke="none" 
	d="
M409.935913,227.604614 
	C406.830963,227.824203 404.940399,230.283676 402.456482,231.413437 
	C400.981415,232.084320 399.740692,233.226837 397.589752,232.987854 
	C394.903564,231.122192 394.674225,228.631256 395.258850,225.555740 
	C399.268616,222.631134 403.089478,220.045502 408.232788,219.687103 
	C409.066528,222.294296 409.520111,224.756134 409.935913,227.604614 
z"/>
<path fill="#BB9049" opacity="1.000000" stroke="none" 
	d="
M160.658524,118.051254 
	C163.604446,122.885597 159.106964,126.426010 158.299805,130.678680 
	C157.880630,132.887177 156.879013,135.251526 156.170410,137.951874 
	C155.957413,140.931335 154.439713,142.202469 151.581116,142.387604 
	C149.660965,141.032166 149.684845,139.337646 150.088974,137.719162 
	C151.408112,132.436493 152.578934,127.088097 155.698120,122.007278 
	C157.376511,120.474419 158.861618,119.301750 160.658524,118.051254 
z"/>
<path fill="#A26621" opacity="1.000000" stroke="none" 
	d="
M397.670563,264.228882 
	C401.539795,260.496002 405.454102,257.721527 410.936554,256.972076 
	C411.280182,259.352722 411.201355,261.744110 411.023163,264.572571 
	C406.713776,267.750916 402.756195,271.122070 396.880371,270.243347 
	C395.475891,267.956177 395.816772,266.127869 397.670563,264.228882 
z"/>
<path fill="#C49F5A" opacity="1.000000" stroke="none" 
	d="
M155.554901,121.745644 
	C155.681274,127.317627 152.487869,132.186768 151.570908,137.678940 
	C151.356049,138.965897 150.738144,140.169357 151.683563,141.729340 
	C151.546509,146.144272 148.745239,148.054398 144.868073,149.013000 
	C143.476242,147.036285 143.957336,145.256851 144.464233,143.501801 
	C145.978241,138.259659 147.362457,132.981567 148.893768,127.347946 
	C151.023499,125.255051 153.120956,123.549622 155.554901,121.745644 
z"/>
<path fill="#D1B167" opacity="1.000000" stroke="none" 
	d="
M148.615509,127.051491 
	C150.569199,128.315170 149.807144,129.858215 149.369308,131.455414 
	C147.857529,136.970032 146.425949,142.506638 144.958801,148.429855 
	C145.604828,152.197418 143.273773,153.285034 140.412643,154.169983 
	C139.270981,150.078217 141.761398,146.796219 142.532990,143.127380 
	C143.314468,139.411453 144.340027,135.770462 144.008591,131.481247 
	C145.440033,129.739914 146.872498,128.441208 148.615509,127.051491 
z"/>
<path fill="#BA8938" opacity="1.000000" stroke="none" 
	d="
M110.084808,209.794296 
	C105.653336,209.729279 103.961403,206.692657 102.380501,203.618103 
	C101.584549,202.070145 101.684380,200.018494 99.404938,199.080093 
	C99.485176,195.788818 100.941200,192.914749 102.386375,189.667206 
	C104.556099,189.823532 105.071175,191.484863 105.448853,193.050354 
	C106.477425,197.313736 108.665947,200.928696 111.504883,204.674377 
	C112.038780,206.772278 111.612267,208.287994 110.084808,209.794296 
z"/>
<path fill="#A26621" opacity="1.000000" stroke="none" 
	d="
M165.674164,387.448181 
	C169.099930,384.540283 172.754028,381.906372 176.720398,379.130188 
	C179.336960,378.184021 180.866119,379.406708 182.396042,381.330872 
	C181.659485,386.829742 176.504242,388.105377 173.340942,391.641907 
	C170.409027,390.870117 168.107330,389.380493 165.674164,387.448181 
z"/>
<path fill="#BB9049" opacity="1.000000" stroke="none" 
	d="
M111.421341,205.024261 
	C105.357796,201.645752 105.058319,195.419312 102.799995,189.760101 
	C103.264305,187.740555 103.917717,186.106827 104.811623,184.242096 
	C108.198982,182.961349 108.114273,185.564789 108.497238,187.267410 
	C109.339729,191.012970 110.361542,194.618500 113.465218,197.735718 
	C114.535934,200.792740 114.227554,203.192062 111.421341,205.024261 
z"/>
<path fill="#B17424" opacity="1.000000" stroke="none" 
	d="
M396.865112,270.250702 
	C402.074493,269.729309 405.459778,265.646027 410.552032,265.015137 
	C410.837128,266.815796 410.750427,268.621948 410.455994,270.748901 
	C405.788483,274.066345 401.953491,278.300079 395.690796,277.979004 
	C394.322266,275.057281 395.017609,272.707886 396.865112,270.250702 
z"/>
<path fill="#BF9236" opacity="1.000000" stroke="none" 
	d="
M408.333435,283.709351 
	C402.206787,283.956268 398.643158,288.734406 393.477570,290.960815 
	C391.028503,288.580658 392.558044,286.456360 393.962280,283.990967 
	C398.992004,280.929596 402.879578,276.337708 409.349670,276.762604 
	C409.277069,279.157257 408.921570,281.292480 408.333435,283.709351 
z"/>
<path fill="#C49F5A" opacity="1.000000" stroke="none" 
	d="
M113.955460,198.145081 
	C107.863815,197.177643 108.559898,191.944855 107.073776,188.171051 
	C106.567917,186.886490 107.530655,185.105042 105.416168,184.101837 
	C105.480713,181.986160 106.213844,180.093323 107.733948,178.211884 
	C111.735703,176.874863 111.143524,179.985077 111.416534,181.782944 
	C111.950699,185.300491 112.524261,188.689255 115.900589,191.279633 
	C117.362106,194.235016 116.573822,196.338760 113.955460,198.145081 
z"/>
<path fill="#B17424" opacity="1.000000" stroke="none" 
	d="
M128.301605,332.592163 
	C124.465240,334.965454 122.580276,339.342804 118.102615,340.941803 
	C116.592224,339.397339 115.288528,337.567413 113.919357,335.401917 
	C116.915604,332.124603 120.144844,329.377533 123.853958,326.681274 
	C127.198875,327.289154 128.002014,329.610199 128.301605,332.592163 
z"/>
<path fill="#B17424" opacity="1.000000" stroke="none" 
	d="
M92.117706,276.396179 
	C95.473694,275.360168 96.656425,271.945740 99.300385,270.457642 
	C100.817665,269.603699 101.979599,268.013580 104.301041,268.032349 
	C106.819016,269.355896 106.417503,271.429504 106.084290,273.846313 
	C102.303772,277.558899 98.755035,281.033478 93.496704,282.240631 
	C92.810600,280.271881 92.449249,278.524719 92.117706,276.396179 
z"/>
<path fill="#D1B167" opacity="1.000000" stroke="none" 
	d="
M116.422318,192.035797 
	C110.159454,191.663849 111.121284,186.685883 110.029228,183.168869 
	C109.523193,181.539154 110.793236,179.444687 108.372139,178.091507 
	C109.114639,175.729675 110.234589,173.464310 111.643906,171.014755 
	C112.698624,173.375717 112.988304,175.957855 113.072800,178.632004 
	C113.176605,181.917328 113.475227,185.345352 117.593613,186.942734 
	C119.570129,189.112808 118.809181,190.722122 116.422318,192.035797 
z"/>
<path fill="#AF7A2F" opacity="1.000000" stroke="none" 
	d="
M408.534668,219.436798 
	C404.448883,221.002319 401.384644,224.672882 396.469513,225.000275 
	C393.726318,224.094528 393.698334,222.190079 394.141022,219.766052 
	C397.944244,216.627945 402.091034,214.742981 406.565308,212.910080 
	C408.335205,214.804596 407.744995,217.088150 408.534668,219.436798 
z"/>
<path fill="#AF7A2F" opacity="1.000000" stroke="none" 
	d="
M246.999023,398.523987 
	C243.980194,404.093658 237.856445,405.816071 234.157837,410.700470 
	C232.595306,410.933380 231.187347,410.868042 229.379990,410.662842 
	C228.155991,406.603699 231.345016,405.119202 233.677017,403.461548 
	C236.099792,401.739319 238.196823,399.822754 240.330124,397.294739 
	C242.939499,396.418549 245.131653,396.162231 246.999023,398.523987 
z"/>
<path fill="#BA8730" opacity="1.000000" stroke="none" 
	d="
M409.770874,276.614838 
	C404.134521,277.625916 400.491760,281.991699 395.291168,283.958008 
	C393.323608,282.011780 393.494598,280.132416 395.691833,278.181030 
	C400.925598,276.387695 404.523651,272.413513 409.872009,271.083862 
	C410.135223,272.782379 410.022217,274.494995 409.770874,276.614838 
z"/>
<path fill="#AF7A2F" opacity="1.000000" stroke="none" 
	d="
M321.087708,122.017418 
	C322.541138,116.259079 327.581879,115.232124 331.989532,112.877823 
	C333.899445,113.616425 335.430328,114.443558 337.155975,115.542274 
	C333.982025,119.407616 329.993042,122.094734 325.045959,124.023750 
	C323.205658,124.114052 321.941925,123.760826 321.087708,122.017418 
z"/>
<path fill="#BA8938" opacity="1.000000" stroke="none" 
	d="
M324.396271,123.696358 
	C328.931061,121.724243 331.922546,117.436668 336.974487,115.892822 
	C338.826477,116.671387 340.302185,117.528915 341.950317,118.661575 
	C339.044403,122.749138 334.849548,124.942009 330.131775,127.009369 
	C327.368835,127.178764 325.551544,126.288399 324.396271,123.696358 
z"/>
<path fill="#D1B167" opacity="1.000000" stroke="none" 
	d="
M203.035919,390.561340 
	C199.837723,394.933990 194.020477,395.307068 190.973724,400.003571 
	C189.079132,399.639282 187.354050,398.952698 185.349579,398.057861 
	C184.615753,395.980164 186.010849,395.198944 187.223999,394.463104 
	C190.420578,392.524384 193.368500,390.201843 197.022156,388.278809 
	C199.629059,387.833710 201.637924,388.172607 203.035919,390.561340 
z"/>
<path fill="#E2CB88" opacity="1.000000" stroke="none" 
	d="
M353.719666,127.691513 
	C349.604919,129.606232 345.347809,131.074387 343.003723,135.746353 
	C340.131683,136.711044 338.631897,135.112717 337.469696,132.481812 
	C339.594574,127.467255 343.976471,125.780258 348.652893,123.990677 
	C350.570312,125.117073 352.119354,126.247078 353.719666,127.691513 
z"/>
<path fill="#AF7A2F" opacity="1.000000" stroke="none" 
	d="
M173.283951,392.017151 
	C174.144623,387.028961 179.513168,386.219574 181.891144,382.166809 
	C184.652039,380.590424 186.363998,382.139038 188.182739,384.140747 
	C186.208923,389.192291 181.534241,390.992981 177.394318,393.854645 
	C175.872055,393.342987 174.707352,392.782684 173.283951,392.017151 
z"/>
<path fill="#C49F5A" opacity="1.000000" stroke="none" 
	d="
M329.378723,126.670944 
	C333.345337,123.882683 337.378021,121.471382 341.766693,118.998398 
	C343.391388,119.728050 344.660034,120.519402 346.089539,121.592621 
	C343.496124,125.632118 338.986816,127.121872 335.286438,130.248932 
	C332.352631,130.530334 330.609650,129.263275 329.378723,126.670944 
z"/>
<path fill="#C49F5A" opacity="1.000000" stroke="none" 
	d="
M197.022598,388.336548 
	C194.079422,392.803284 189.105545,394.174500 185.237183,397.565308 
	C183.882309,397.350861 182.694412,396.852173 181.274414,396.123138 
	C180.490021,393.579102 182.245667,392.652039 183.730865,391.748749 
	C186.394699,390.128540 188.694504,387.985748 191.804382,386.367767 
	C194.117630,385.811401 195.790054,386.197968 197.022598,388.336548 
z"/>
<path fill="#BB9049" opacity="1.000000" stroke="none" 
	d="
M225.294998,409.597748 
	C223.551453,409.643799 222.105057,409.457275 220.338593,409.099609 
	C218.702728,406.291718 221.037827,405.371368 222.438034,404.273529 
	C225.333817,402.003052 228.059357,399.584412 230.808624,396.616455 
	C232.462280,395.914581 233.681458,396.124908 235.065155,397.268982 
	C236.539261,399.883514 235.615372,401.690002 233.801422,403.142853 
	C231.121826,405.288971 228.615051,407.670197 225.294998,409.597748 
z"/>
<path fill="#BA8938" opacity="1.000000" stroke="none" 
	d="
M192.014114,386.278534 
	C189.585938,390.867462 184.441544,391.812958 181.204254,395.603149 
	C179.857071,395.387024 178.671829,394.881226 177.261688,394.139343 
	C179.711945,390.005615 184.003571,388.067841 187.863312,385.070160 
	C189.801361,383.862213 190.936417,384.667328 192.014114,386.278534 
z"/>
<path fill="#CEA13C" opacity="1.000000" stroke="none" 
	d="
M109.839905,328.403320 
	C113.931564,326.496552 116.686119,323.062042 120.054131,319.876862 
	C122.227180,319.843201 122.879311,321.241547 123.030159,323.434448 
	C120.686066,328.120575 117.476593,331.327332 112.229797,332.256134 
	C111.245224,330.937561 110.591675,329.831146 109.839905,328.403320 
z"/>
<path fill="#C49F5A" opacity="1.000000" stroke="none" 
	d="
M230.748077,396.903259 
	C229.180405,402.704651 223.237885,404.088745 220.076263,408.598450 
	C218.873596,408.755280 217.728653,408.582123 216.292938,408.210815 
	C214.619461,405.746765 216.647415,404.799652 217.803513,403.634827 
	C220.320221,401.098938 223.273270,399.041046 226.174118,396.338531 
	C227.918442,395.694550 229.253326,395.736237 230.748077,396.903259 
z"/>
<path fill="#D1B167" opacity="1.000000" stroke="none" 
	d="
M96.074921,294.346100 
	C98.956543,293.597137 100.126854,290.980865 102.071243,289.383942 
	C103.595436,288.132111 105.169670,287.086456 107.579132,286.996399 
	C109.570221,287.632019 109.987587,288.804016 109.194328,290.718201 
	C103.958961,291.293396 102.182243,296.618164 97.569901,298.011902 
	C96.845528,296.945312 96.454666,295.824615 96.074921,294.346100 
z"/>
<path fill="#BA8938" opacity="1.000000" stroke="none" 
	d="
M225.317047,409.952576 
	C225.675430,406.078949 229.477844,405.455872 231.713181,403.271362 
	C233.091721,401.924225 234.957977,401.125183 235.005127,398.481506 
	C236.292084,396.680847 237.778625,396.728119 239.676086,397.882751 
	C240.179657,400.769653 238.708069,402.174927 236.656082,403.145660 
	C233.466278,404.654633 231.062851,407.023468 229.045425,410.213745 
	C227.865799,410.373566 226.751007,410.224182 225.317047,409.952576 
z"/>
<path fill="#D1B167" opacity="1.000000" stroke="none" 
	d="
M334.929504,130.505676 
	C337.234833,125.831406 341.748444,124.398811 345.884949,121.937943 
	C347.093689,122.394440 347.936951,122.914383 348.900757,123.710693 
	C345.461121,126.514748 341.900940,129.042419 338.147278,131.851013 
	C336.582428,132.574203 335.628937,132.014725 334.929504,130.505676 
z"/>
<path fill="#D7BD7D" opacity="1.000000" stroke="none" 
	d="
M403.562164,201.796066 
	C404.247711,203.116714 404.632812,204.200882 405.018127,205.634583 
	C402.003967,209.707199 398.686523,212.910278 393.044678,212.586639 
	C391.515198,211.535400 391.018280,210.369553 391.345825,208.538574 
	C395.354340,205.877899 398.606476,202.466400 403.562164,201.796066 
z"/>
<path fill="#D1B167" opacity="1.000000" stroke="none" 
	d="
M225.785141,396.634918 
	C224.403610,402.048981 218.635025,403.147003 216.058258,407.678253 
	C215.134964,407.931152 214.267746,407.849640 213.146515,407.558105 
	C211.560287,405.119080 213.054276,403.642975 214.376404,402.239410 
	C216.380035,400.112488 218.345245,397.947968 220.728500,395.645416 
	C222.741318,394.781799 224.237015,395.100952 225.785141,396.634918 
z"/>
<path fill="#BB9049" opacity="1.000000" stroke="none" 
	d="
M406.948639,212.697571 
	C403.417572,215.454224 400.339966,218.689880 395.324799,219.042542 
	C393.387482,219.066559 393.325104,217.963791 393.371979,216.465729 
	C396.884430,212.822037 400.464539,209.871933 405.791992,209.743866 
	C406.400604,210.763306 406.684296,211.565216 406.948639,212.697571 
z"/>
<path fill="#D7BD7D" opacity="1.000000" stroke="none" 
	d="
M220.969147,395.479462 
	C220.678055,399.054779 217.824738,400.277130 216.121246,402.368500 
	C215.008041,403.735229 213.337997,404.681213 212.943176,406.980743 
	C211.742874,407.164917 210.593246,406.981781 209.183319,406.566406 
	C208.918381,404.400208 210.247391,403.530273 211.665497,402.550079 
	C214.040695,400.908417 215.797516,398.751251 215.998291,395.300415 
	C217.670181,393.534790 219.305756,393.540009 220.969147,395.479462 
z"/>
<path fill="#BA8938" opacity="1.000000" stroke="none" 
	d="
M93.146271,282.366119 
	C97.595772,280.543365 99.828606,275.510376 105.168571,274.812561 
	C106.694618,275.365417 106.843201,276.309296 106.202484,277.723511 
	C101.302483,279.338898 98.721558,283.552673 94.494492,285.971130 
	C93.814568,284.919434 93.467583,283.816315 93.146271,282.366119 
z"/>
<path fill="#BF9236" opacity="1.000000" stroke="none" 
	d="
M111.999619,332.331726 
	C116.071098,330.375519 118.853645,326.942596 122.236710,323.703064 
	C123.627258,323.798096 124.136208,324.747131 124.261467,326.279053 
	C121.631630,330.125702 118.990036,333.570190 114.216782,335.021393 
	C113.269417,334.250702 112.684944,333.435120 111.999619,332.331726 
z"/>
<path fill="#C49F5A" opacity="1.000000" stroke="none" 
	d="
M406.118622,209.606659 
	C401.801758,210.886642 398.761444,214.234055 394.493835,215.943176 
	C392.429688,215.419434 392.042450,214.219513 392.844543,212.284088 
	C397.926758,212.017792 400.476959,207.819992 404.670532,206.033173 
	C405.973145,206.875275 405.910461,208.109558 406.118622,209.606659 
z"/>
<path fill="#ECDF85" opacity="1.000000" stroke="none" 
	d="
M389.806763,202.321091 
	C394.544739,201.511230 397.174957,197.548874 401.476288,196.026886 
	C402.174835,196.766098 402.533569,197.549728 402.879333,198.657440 
	C399.965912,202.768799 396.647461,205.850357 391.081970,205.583878 
	C389.832794,204.700455 389.327881,203.820999 389.806763,202.321091 
z"/>
<path fill="#E2CB88" opacity="1.000000" stroke="none" 
	d="
M390.788574,205.328140 
	C395.822449,205.019928 398.425476,200.955627 402.527557,199.032715 
	C403.206238,199.780914 403.546143,200.580276 403.874329,201.706116 
	C399.734955,203.203629 397.371399,207.656799 392.420593,207.985245 
	C390.217529,208.089905 390.401794,206.864563 390.788574,205.328140 
z"/>
<path fill="#010100" opacity="1.000000" stroke="none" 
	d="
M390.880920,204.701202 
	C391.262299,205.798737 391.477173,206.617508 391.871521,207.711365 
	C391.758057,209.240494 392.321808,210.276764 393.018585,211.640701 
	C392.771942,213.229340 393.454590,214.252487 394.022217,215.658981 
	C394.282990,216.831207 394.413818,217.674850 394.739258,218.781067 
	C395.228363,220.790955 395.522858,222.538269 395.952148,224.640656 
	C396.400940,227.395248 396.714935,229.794754 397.122437,232.589569 
	C398.372986,242.992432 398.152527,253.032135 397.978149,263.538025 
	C397.737061,265.755890 397.435852,267.507904 397.180237,269.641296 
	C396.829529,272.417511 396.433228,274.812256 396.075562,277.610596 
	C394.641876,279.496613 395.134705,281.434143 394.923737,283.601196 
	C394.306793,286.088623 393.677887,288.180756 393.093140,290.643860 
	C391.076080,296.703888 389.014832,302.392883 386.932770,308.453064 
	C385.580536,311.546326 384.249146,314.268463 382.880859,317.340302 
	C380.810791,321.189728 378.777588,324.689453 376.580750,328.518494 
	C367.960236,341.737915 358.303253,353.591736 346.230225,363.798126 
	C334.244904,373.634216 321.493561,381.599548 307.240173,387.744263 
	C300.587769,390.025909 294.175140,392.053802 287.394043,394.218140 
	C274.157684,397.349060 261.096222,398.643707 247.464844,398.880707 
	C244.947235,398.679443 242.870972,398.407227 240.389435,398.193237 
	C238.601776,398.172638 237.219391,398.093781 235.424744,398.067627 
	C233.900436,397.811493 232.788361,397.502686 231.332001,397.220886 
	C229.602478,397.111755 228.217270,396.975586 226.419067,396.907745 
	C224.597229,396.601013 223.188339,396.225952 221.403534,395.891785 
	C219.786407,394.865051 218.216354,394.994568 216.376465,394.840759 
	C211.932968,393.619568 207.860199,392.314423 203.398804,390.985413 
	C201.270691,390.260010 199.531174,389.558502 197.430649,388.791931 
	C195.631729,388.082520 194.193802,387.438110 192.415115,386.717957 
	C190.981415,386.085205 189.888474,385.528259 188.484665,384.940857 
	C186.354996,383.941467 184.536179,382.972595 182.374664,381.927704 
	C180.579086,380.946167 179.126205,380.040619 177.352997,379.061462 
	C165.811432,371.667145 154.821701,364.036835 145.657028,354.139893 
	C141.732407,349.901703 138.063065,345.427063 134.060974,340.849121 
	C132.145447,338.194946 130.446701,335.751495 128.471649,333.132751 
	C127.047333,330.988098 125.899315,329.018829 124.483368,326.832062 
	C123.760704,325.688171 123.305977,324.761719 122.634087,323.599060 
	C121.859901,322.218811 121.302864,321.074738 120.482460,319.739563 
	C119.336510,317.482452 118.453934,315.416534 117.285645,313.160126 
	C114.437401,305.866425 111.874870,298.763214 109.116302,291.350342 
	C109.134674,289.823273 108.935982,288.682281 108.117493,287.312408 
	C107.390068,284.227814 106.833099,281.455292 106.108116,278.350037 
	C105.896187,277.135620 105.852257,276.253876 105.687592,275.060883 
	C105.336151,272.782654 105.105438,270.815674 104.760254,268.436157 
	C104.442474,265.621704 104.239166,263.219757 103.968185,260.413391 
	C103.998856,250.293411 103.730782,240.562698 105.069725,230.454407 
	C105.722633,226.628113 106.415115,223.247757 107.099823,219.450012 
	C107.921722,216.254944 108.751389,213.477295 109.648804,210.339355 
	C110.152550,208.567123 110.588562,207.155212 111.006699,205.372162 
	C111.788330,202.991882 112.587830,200.982712 113.472885,198.612427 
	C114.362228,196.398071 115.166016,194.544815 115.980415,192.344910 
	C116.691963,190.560226 117.392891,189.122192 118.022888,187.336823 
	C120.611374,182.565277 123.270790,178.141068 125.991257,173.367859 
	C127.868469,170.149719 129.684631,167.280594 131.736298,164.156738 
	C135.326920,161.473114 136.725662,157.375275 139.921432,154.398895 
	C141.576279,152.529037 143.118896,150.974976 144.807648,149.122894 
	C147.184128,146.746902 149.414520,144.668945 151.792725,142.291412 
	C153.237488,140.950027 154.534409,139.908218 156.007263,138.609375 
	C158.334000,136.738525 160.484818,135.124695 162.816406,133.231766 
	C165.567780,131.227020 168.138382,129.501389 170.908737,127.519653 
	C174.581360,125.319275 178.054245,123.375000 181.753235,121.175964 
	C193.181534,115.850426 204.420273,110.880951 216.475006,108.100914 
	C249.850906,100.403816 282.129791,103.606812 313.661194,117.877747 
	C316.145477,119.097198 318.271790,120.265388 320.715149,121.521240 
	C321.932190,122.115349 322.832184,122.621796 324.026154,123.212982 
	C325.781006,124.246300 327.241882,125.194862 329.007690,126.218704 
	C330.977966,127.496147 332.643250,128.698318 334.623322,130.022552 
	C335.740234,130.757874 336.542328,131.371124 337.649139,132.058167 
	C339.421417,133.367813 340.889038,134.603668 342.653992,135.969498 
	C349.318787,141.750870 355.739807,147.346558 361.643372,153.928650 
	C363.690643,156.303665 365.429993,158.549561 367.463135,160.931305 
	C373.960266,170.181625 380.020233,179.381958 384.930237,189.684479 
	C386.637695,193.791275 388.141541,197.606781 389.851379,201.714783 
	C390.276367,202.812332 390.495361,203.617371 390.880920,204.701202 
z"/>
<path fill="#BA8938" opacity="1.000000" stroke="none" 
	d="
M238.623245,261.677795 
	C244.417160,269.402771 246.857147,278.300873 250.002930,286.871796 
	C252.969666,294.954956 255.465622,303.241425 260.735168,310.360443 
	C249.709396,312.376190 247.881943,311.507050 244.086227,301.544891 
	C240.889603,293.155121 238.087692,284.615814 234.988800,276.187622 
	C233.436386,271.965485 231.546951,267.863342 228.669434,264.342804 
	C224.400467,259.119873 218.676727,258.008698 213.202225,261.976227 
	C208.639053,265.283264 204.634140,269.357574 200.352921,273.058411 
	C198.861481,274.347687 199.124649,276.038116 199.123306,277.679108 
	C199.115219,287.511139 198.904495,297.350006 199.217422,307.172058 
	C199.354095,311.462189 196.998825,311.161621 194.239014,311.013702 
	C191.628021,310.873810 188.687485,312.076050 188.720947,307.200104 
	C188.918823,278.371979 188.917068,249.541077 188.722305,220.712891 
	C188.689560,215.864777 191.603714,216.998154 194.242813,216.864960 
	C197.028152,216.724380 199.294861,216.479431 199.218857,220.746033 
	C198.957657,235.406113 199.118835,250.073700 199.119064,264.738434 
	C199.119095,266.352570 199.119080,267.966705 199.119080,270.409271 
	C204.168793,266.985901 207.465897,262.867493 211.260422,259.329773 
	C214.062027,256.717773 216.666412,253.895569 219.411072,251.220795 
	C222.024338,248.674042 224.271820,246.425247 223.958313,241.974136 
	C223.605698,236.967545 228.752228,232.709335 233.623001,233.509674 
	C235.706635,233.852051 236.621384,233.368637 237.744522,232.117126 
	C241.639633,227.776840 245.456619,223.361511 249.479248,219.142456 
	C251.866074,216.639069 250.454956,215.951599 248.102097,215.389832 
	C243.372940,214.260696 238.911148,212.480087 234.799637,209.864655 
	C221.733643,201.553177 221.030197,183.760849 233.381836,174.367889 
	C245.982147,164.785843 278.467651,162.722183 292.538574,176.441345 
	C296.034454,179.849823 298.530457,183.541733 298.073425,188.684677 
	C297.784363,191.937149 296.183868,194.299561 293.438812,195.950150 
	C291.824005,196.921143 289.839203,197.798889 288.237305,197.079437 
	C286.103210,196.120956 288.042053,194.153229 288.160034,192.724655 
	C289.182312,180.346741 281.427765,171.556152 266.728516,169.301926 
	C258.161194,167.988068 249.714386,168.911743 242.027374,173.298859 
	C235.890778,176.801102 231.600128,181.795334 232.018372,189.337723 
	C232.415085,196.491516 237.540833,199.969437 243.412903,202.541214 
	C252.057114,206.327118 261.457764,207.013763 270.543579,208.989105 
	C276.911469,210.373535 283.131409,212.107574 288.577942,215.921875 
	C303.717621,226.524445 303.378357,248.050659 287.324402,257.131531 
	C272.010712,265.793610 255.633026,266.237976 238.646515,260.253723 
	C238.365372,260.517059 238.472122,260.935577 238.623245,261.677795 
z"/>
<path fill="#AF7A2F" opacity="1.000000" stroke="none" 
	d="
M226.861603,345.847534 
	C224.607742,341.913452 226.274628,337.634766 225.537476,333.530426 
	C225.402267,332.777527 225.914261,332.325317 226.741943,332.429047 
	C227.679230,332.546448 227.501648,333.310852 227.625717,333.927917 
	C228.425217,337.903839 227.733017,341.831207 226.861603,345.847534 
z"/>
<path fill="#A26621" opacity="1.000000" stroke="none" 
	d="
M270.488037,345.462280 
	C267.626801,343.195007 267.287994,341.050354 268.993561,336.149109 
	C271.019592,339.088013 269.089600,342.482086 270.488037,345.462280 
z"/>
<path fill="#A26621" opacity="1.000000" stroke="none" 
	d="
M248.911209,342.209167 
	C249.510544,340.217682 247.654068,337.283417 249.190369,337.236206 
	C252.228607,337.142914 250.278992,340.232300 250.807617,341.865814 
	C250.903763,342.162842 250.888397,342.532928 250.812592,342.841858 
	C250.569016,343.834229 251.550186,345.662933 249.995605,345.676941 
	C247.923843,345.695618 249.323212,343.664581 248.911209,342.209167 
z"/>
<path fill="#A26621" opacity="1.000000" stroke="none" 
	d="
M243.458344,345.760345 
	C240.441071,342.993042 242.544067,339.779510 242.695816,336.647003 
	C244.606262,339.424896 243.721786,342.570496 243.458344,345.760345 
z"/>
<path fill="#A26621" opacity="1.000000" stroke="none" 
	d="
M274.893494,344.586060 
	C274.818695,341.654877 274.818695,339.161713 274.818695,336.668549 
	C277.414856,339.500153 276.945160,342.569458 276.373871,345.567566 
	C276.272125,346.101471 275.308594,345.631378 274.893494,344.586060 
z"/>
<path fill="#BA8938" opacity="1.000000" stroke="none" 
	d="
M256.752136,337.590698 
	C257.155853,340.501770 257.356232,343.094360 257.556641,345.686951 
	C257.101044,345.714172 256.645416,345.741364 256.189819,345.768555 
	C255.968002,342.960266 254.826385,340.216064 256.752136,337.590698 
z"/>
<path fill="#AF7A2F" opacity="1.000000" stroke="none" 
	d="
M265.734985,343.743042 
	C264.150909,341.310577 260.305725,342.204437 259.152374,338.894348 
	C262.039093,340.095673 265.595795,339.366394 265.734985,343.743042 
z"/>
<path fill="#AF7A2F" opacity="1.000000" stroke="none" 
	d="
M237.790466,337.235352 
	C240.066956,339.726532 239.343475,342.829865 238.334991,345.902954 
	C237.795761,345.683960 237.599533,345.490601 237.567352,344.917908 
	C237.710587,342.759064 237.689758,340.979523 237.711823,338.820404 
	C237.713821,338.166962 237.672928,337.893097 237.790466,337.235352 
z"/>
<path fill="#A26621" opacity="1.000000" stroke="none" 
	d="
M237.414429,344.724792 
	C237.782593,344.760223 237.833801,344.981873 237.938492,345.540466 
	C236.008087,345.554565 233.295135,346.679718 232.891388,342.931824 
	C232.804413,342.235199 232.681076,341.897614 232.875854,341.124847 
	C234.896317,341.725769 233.825180,345.326569 237.414429,344.724792 
z"/>
<path fill="#9A5B1B" opacity="1.000000" stroke="none" 
	d="
M261.364807,336.877106 
	C262.586121,336.356537 264.129608,335.510956 266.440430,337.697693 
	C264.196350,337.638824 263.064789,336.165222 261.364807,336.877106 
z"/>
<path fill="#9A5B1B" opacity="1.000000" stroke="none" 
	d="
M259.658630,345.432251 
	C259.214691,344.682068 258.842468,343.822815 259.707794,343.862701 
	C260.296631,343.889801 261.279755,344.845337 261.299011,345.412506 
	C261.324677,346.166046 260.425232,345.873657 259.658630,345.432251 
z"/>
<path fill="#9A5B1B" opacity="1.000000" stroke="none" 
	d="
M238.615356,261.512695 
	C238.023849,261.656433 237.709518,261.144012 238.077087,260.240631 
	C238.314194,260.418671 238.415665,260.727142 238.615356,261.512695 
z"/>
<path fill="#9A5B1B" opacity="1.000000" stroke="none" 
	d="
M261.021301,337.009949 
	C260.868195,337.012665 260.719574,337.022064 260.570953,337.031464 
	C260.698975,337.105255 260.826965,337.179047 261.002655,337.137634 
	C261.050323,337.022369 261.025818,337.016693 261.021301,337.009949 
z"/>
<path fill="#AF7A2F" opacity="1.000000" stroke="none" 
	d="
M233.138947,340.451080 
	C233.141022,341.002167 233.088104,341.314728 232.981445,342.100037 
	C232.567917,342.027252 232.208115,341.481781 231.784714,340.603638 
	C231.776596,340.073212 231.832047,339.875397 232.178574,339.576477 
	C232.775757,339.636597 232.980515,339.882324 233.138947,340.451080 
z"/>
<path fill="#A26621" opacity="1.000000" stroke="none" 
	d="
M237.697662,336.959045 
	C237.926010,337.117188 237.903152,337.382935 237.817505,338.044739 
	C237.307144,338.060120 237.032425,337.640625 237.697662,336.959045 
z"/>
<path fill="#AF7A2F" opacity="1.000000" stroke="none" 
	d="
M231.912964,340.076538 
	C231.577332,339.928558 231.433548,339.586060 231.289764,339.243591 
	C231.540955,339.207031 231.792130,339.170471 232.256485,339.304626 
	C232.348038,339.610901 232.226425,339.746460 231.912964,340.076538 
z"/>
<path fill="#9A5B1B" opacity="1.000000" stroke="none" 
	d="
M264.916351,345.063904 
	C264.961395,344.968109 264.827698,345.310608 264.827698,345.310608 
	C264.827698,345.310608 264.871307,345.159729 264.916351,345.063904 
z"/>
<path fill="#9A5B1B" opacity="1.000000" stroke="none" 
	d="
M265.156982,344.230103 
	C265.235596,343.970673 265.563110,343.964569 265.726349,343.967468 
	C265.759491,344.285370 265.629425,344.600342 265.230347,344.941711 
	C264.961395,344.968109 264.994324,344.996582 265.008606,345.012726 
	C265.041412,344.849060 265.059906,344.669281 265.156982,344.230103 
z"/>
<path fill="#020101" opacity="1.000000" stroke="none" 
	d="
M256.171906,222.150177 
	C258.885681,218.464096 262.052032,218.023849 265.990936,219.090485 
	C272.411346,220.829102 278.888000,222.245010 284.238403,226.592407 
	C294.676819,235.073975 294.447083,248.164276 283.192047,255.423569 
	C272.110229,262.571136 259.996552,264.033051 247.421555,259.604889 
	C243.608047,258.261993 240.350586,255.953979 237.807526,252.738922 
	C232.589478,246.141998 232.794266,243.392365 238.930191,237.812683 
	C244.586456,232.669189 250.247269,227.530670 256.171906,222.150177 
z"/>
<path fill="#020101" opacity="1.000000" stroke="none" 
	d="
M225.117096,256.009705 
	C222.923508,256.282471 221.142288,256.545227 219.280640,256.819855 
	C224.075638,249.274994 225.331680,249.109390 229.755966,255.526321 
	C228.406952,256.451294 226.907196,255.835190 225.117096,256.009705 
z"/>
<path fill="#9A5B1B" opacity="1.000000" stroke="none" 
	d="
M236.463974,259.424805 
	C236.549561,259.370728 236.582535,259.589142 236.582535,259.589142 
	C236.582535,259.589142 236.378387,259.478851 236.463974,259.424805 
z"/>
</svg>